<?xml version="1.0" encoding="iso-8859-1"?>
<!-- Generator: Adobe Illustrator 19.0.0, SVG Export Plug-In . SVG Version: 6.00 Build 0)  -->
<svg xmlns="http://www.w3.org/2000/svg" xmlns:xlink="http://www.w3.org/1999/xlink" version="1.1" id="Layer_1" x="0px" y="0px" viewBox="0 0 496 496" style="enable-background:new 0 0 496 496;" xml:space="preserve" width="512px" height="512px">
<g>
	<g>
		<g>
			<path d="M474.529,147.072l-1.8-4.024l-4.36-0.632c-44.656-6.472-76.536-33.28-92.208-77.52     c-5.408-15.28-8.152-32.712-8.152-51.816V0h-240v13.08c0,19.104-2.744,36.536-8.16,51.816     c-15.672,44.24-47.552,71.048-92.208,77.52l-4.36,0.632l-1.8,4.024C7.233,179,0.009,212.96,0.009,248     c0,69.032,27.68,133.136,77.928,180.496C124.457,472.344,184.289,496,247.833,496c5.064,0,10.16-0.152,15.264-0.456     c121.768-7.208,221.504-104.256,231.968-225.736C498.697,227.76,491.593,185.32,474.529,147.072z M479.129,268.44     c-9.8,113.624-103.08,204.4-216.984,211.144c-64.632,3.832-126.24-18.44-173.224-62.72C41.897,372.544,16.009,312.576,16.009,248     c0-31.336,6.176-61.752,18.368-90.456c48.584-8.48,83.304-38.576,100.552-87.304c5.744-16.2,8.792-34.44,9.056-54.24h208.048     c0.264,19.8,3.312,38.032,9.056,54.24c17.248,48.728,51.968,78.832,100.552,87.304     C476.561,192.672,482.449,229.96,479.129,268.44z" fill="#28160b"/>
			<path d="M437.873,184.944l-4-1.256c-48.968-15.32-84.56-50.848-102.952-102.76c-2.968-8.384-5.368-17.28-7.128-26.448L322.545,48     H173.473l-1.248,6.488c-1.76,9.168-4.168,18.064-7.128,26.432c-18.392,51.92-53.984,87.456-102.944,102.76l-4.008,1.256     l-1.24,4.016c-5.904,19.04-8.896,38.904-8.896,59.048c0,110.28,89.72,200,200,200c4.048,0,8.144-0.112,12.24-0.36     c98.168-5.816,178.56-84.04,186.992-181.952c2.272-26.304-0.464-52.12-8.12-76.736L437.873,184.944z M431.305,264.312     c-7.768,90.056-81.712,162-172.008,167.36C152.953,437.952,64.009,353.184,64.009,248c0-17.152,2.352-34.072,7-50.368     c51.84-17.528,89.536-55.952,109.168-111.36c2.528-7.128,4.672-14.592,6.408-22.264h122.856     c1.736,7.664,3.872,15.136,6.408,22.272c19.616,55.4,57.32,93.824,109.176,111.36     C431.169,219.072,433.273,241.488,431.305,264.312z" fill="#28160b"/>
			<path d="M278.417,396.976l3.184,15.68c32.728-6.664,62.552-22.936,86.24-47.048L356.433,354.4     C334.985,376.224,308.001,390.952,278.417,396.976z" fill="#28160b"/>
			<path d="M257.417,399.728c-3.16,0.184-6.296,0.272-9.408,0.272v16c3.424,0,6.872-0.096,10.344-0.304     c2.168-0.128,4.304-0.296,6.44-0.504l-1.56-15.92C261.297,399.456,259.361,399.608,257.417,399.728z" fill="#28160b"/>
			<path d="M318.841,212.536c0.72-4.08,1.168-8.256,1.168-12.536c0-39.696-32.296-72-72-72c-39.704,0-72,32.304-72,72     c0,4.28,0.448,8.456,1.168,12.536c-28.528,9.576-49.16,36.512-49.16,68.224c0,39.696,32.296,72,72,72     c18.448,0,35.248-7.032,48-18.488c12.752,11.448,29.552,18.488,48,18.488c39.704,0,72-32.304,72-72     C368.017,249.048,347.377,222.104,318.841,212.536z M248.009,144c30.872,0,56,25.12,56,56c0,3.112-0.32,6.152-0.808,9.128     c-2.36-0.232-4.76-0.36-7.184-0.36c-3.144,0-6.216,0.272-9.248,0.664c0.76-3.144,1.24-6.296,1.24-9.432c0-22.056-17.944-40-40-40     c-22.056,0-40,17.944-40,40c0,3.144,0.48,6.296,1.248,9.424c-3.032-0.392-6.104-0.664-9.24-0.664c-2.432,0-4.832,0.128-7.2,0.368     c-0.488-2.976-0.808-6.016-0.808-9.128C192.009,169.12,217.137,144,248.009,144z M270.849,268.224     c8.344-2.8,16.032-7.048,22.704-12.512l7.504,1.592c10.984,2.336,18.96,12.192,18.96,23.456c0,13.232-10.768,24-24,24     c-6.936,0-13.328-2.912-17.976-8.2l-6.552-7.44c0.32-2.744,0.528-5.528,0.528-8.36     C272.017,276.48,271.569,272.304,270.849,268.224z M248.017,227.24c-6.112-5.488-13.128-9.976-20.84-13.128l-2.144-7.264     c-0.68-2.288-1.024-4.592-1.024-6.848c0-13.232,10.768-24,24-24s24,10.768,24,24c0,2.256-0.344,4.552-1.016,6.84l-2.152,7.28     C261.129,217.28,254.121,221.76,248.017,227.24z M250.121,255.888c-0.712,0.032-1.4,0.112-2.112,0.112     c-0.704,0-1.392-0.08-2.096-0.104c0.656-1.312,1.352-2.584,2.104-3.832C248.769,253.312,249.465,254.584,250.121,255.888z      M224.545,289.128l-6.544,7.424c-4.656,5.296-11.048,8.208-17.984,8.208c-13.232,0-24-10.768-24-24     c0-11.256,7.968-21.12,18.944-23.448l7.512-1.6c6.672,5.464,14.36,9.712,22.712,12.512c-0.72,4.08-1.168,8.248-1.168,12.536     C224.017,283.592,224.225,286.376,224.545,289.128z M197.905,224.872c0.704-0.024,1.4-0.104,2.104-0.104     c14.36-0.008,27.432,5.472,37.352,14.384c-3.032,4.256-5.656,8.824-7.712,13.696     C215.777,248.016,204.393,237.888,197.905,224.872z M200.033,336.76c-30.888,0-56.016-25.12-56.016-56     c0-24.44,15.76-45.216,37.632-52.84c2.16,5.104,4.944,9.872,8.168,14.296c-17.344,4.576-29.792,20.424-29.792,38.536     c0,22.056,17.944,40,40,40c11.288,0,21.624-4.656,29.304-12.992c2.112,5.208,4.832,10.088,8.048,14.608     C227.457,331.28,214.385,336.76,200.033,336.76z M248.017,309.456c-5.048-8.408-8-18.2-8-28.696c0-3.112,0.32-6.152,0.808-9.128     c2.368,0.24,4.76,0.368,7.184,0.368c2.432,0,4.832-0.128,7.2-0.368c0.488,2.976,0.808,6.016,0.808,9.128     C256.017,291.256,253.065,301.048,248.017,309.456z M296.009,224.76c0.704,0,1.392,0.08,2.096,0.104     c-6.48,13.016-17.856,23.136-31.728,27.976c-2.056-4.872-4.68-9.432-7.712-13.688C268.585,230.24,281.657,224.76,296.009,224.76z      M296.017,336.76c-14.352,0-27.424-5.48-37.344-14.392c3.216-4.52,5.928-9.4,8.04-14.6c7.68,8.336,18.016,12.992,29.304,12.992     c22.056,0,40-17.944,40-40c0-18.12-12.456-33.968-29.808-38.544c3.224-4.432,6.008-9.192,8.16-14.296     c21.872,7.624,37.648,28.4,37.648,52.848C352.017,311.64,326.889,336.76,296.017,336.76z" fill="#28160b"/>
		</g>
	</g>
</g>
</svg>
